<svg width="180" height="18" viewBox="0 0 180 18" fill="none" xmlns="http://www.w3.org/2000/svg"><path d="M0 17.7059V.299998h6.387a15.01231 15.01231 0 012.576.165951 5.023013 5.023013 0 012.091.812761c.5893.43397 1.0564 1.01286 1.356 1.68051.3475.74283.5231 1.55434.514 2.37431.0363 1.38167-.455 2.72533-1.374 3.75791-.9167 1.02506-2.57233 1.53756-4.967 1.53756H2.241v7.0759L0 17.7059zm2.241-9.13031h4.377c1.09361.10511 2.18832-.18891 3.082-.82776.3121-.30088.5552-.66582.7126-1.06966.1575-.40385.2255-.83701.1994-1.26966.0189-.66401-.1687-1.31753-.537-1.87046-.33252-.50126-.83389-.86662-1.413-1.0297a9.325033 9.325033 0 00-2.09-.15895H2.241v6.22619zM15.8466 17.706V.300018h2.241V7.44794h8.8V.300018h2.241V17.706h-2.241V9.50134h-8.8V17.706h-2.241zM32.6451 9.22831c-.1453-2.46664.6655-4.89444 2.264-6.77902A7.600116 7.600116 0 0137.5636.586697c1.0085-.422702 2.0965-.622824 3.1895-.586698 1.4891-.020104 2.9537.378614 4.227 1.150661 1.2519.76383 2.2503 1.88019 2.87 3.20907.6779 1.46127 1.0157 3.05712.988 4.66764.028 1.63713-.3282 3.25793-1.04 4.73263-.6352 1.33-1.6631 2.4333-2.945 3.1611-1.2529.711-2.6703 1.0812-4.111 1.0737-1.5082.0231-2.991-.3889-4.271-1.1867-1.2454-.7794-2.2368-1.9046-2.853-3.2381a10.036036 10.036036 0 01-.973-4.34169zm2.31.03599c-.1017 1.8001.4869 3.5713 1.646 4.9526.5292.5719 1.1712 1.0279 1.8856 1.3393.7144.3113 1.4856.4712 2.2649.4695a5.637691 5.637691 0 002.2628-.4794c.713-.3144 1.353-.7732 1.8797-1.3474 1.1724-1.4636 1.7552-3.3124 1.634-5.18353.0276-1.2709-.2109-2.53353-.7-3.70692-.4144-.99747-1.1187-1.84772-2.0216-2.44084-.9029-.59311-1.9631-.90181-3.0434-.88619a5.651466 5.651466 0 00-2.2171.42232c-.7031.28841-1.3408.71566-1.8749 1.25619-1.144 1.11901-1.716 2.98713-1.716 5.60437zM55.5576 17.706V2.34942h-5.579V.300018h13.421V2.34942h-5.6V17.706h-2.242zM64.5862 9.22832c-.1465-2.4661.6629-4.89384 2.26-6.77903A7.599515 7.599515 0 0169.5024.585859c1.0093-.422721 2.0981-.62256 3.1917-.585853 1.4891-.02005 2.9538.378664 4.227 1.150664 1.252.76373 2.2504 1.88012 2.87 3.20907a10.654538 10.654538 0 01.9881 4.66764c.028 1.63712-.3282 3.25802-1.04 4.73262-.6351 1.3301-1.663 2.4334-2.945 3.1611-1.2529.711-2.6704 1.0812-4.111 1.0737-1.5089.0235-2.9925-.3885-4.273-1.1867-1.2454-.7795-2.2367-1.9046-2.853-3.238-.6445-1.3565-.9763-2.8401-.971-4.34178zm2.31.03599c-.1018 1.80009.4869 3.57129 1.646 4.95259.5291.572 1.1711 1.0282 1.8855 1.3396a5.63744 5.63744 0 002.2649.4696c.7794-.0016 1.5499-.1649 2.2629-.4794.713-.3145 1.353-.7735 1.8796-1.3478 1.1723-1.4636 1.7551-3.3124 1.6341-5.18352.0275-1.2709-.211-2.53352-.7-3.70692-.4145-.99747-1.1187-1.84772-2.0216-2.44084-.903-.59311-1.9631-.90181-3.0434-.88619-.7603-.01-1.5148.1335-2.2182.42192-.7035.28842-1.3415.71582-1.8758 1.25659-1.1427 1.11901-1.714 2.98713-1.714 5.60437zM92.0334 17.7059V.300006h6.352c1.0632-.041413 2.1236.138683 3.1126.528845.767.338599 1.409.907009 1.837 1.626529.431.68989.661 1.4861.664 2.29933.001.74062-.203 1.46704-.589 2.09939-.428.68935-1.046 1.24135-1.779 1.59053.94.2521 1.771.80735 2.362 1.57957.558.7644.848 1.6907.826 2.6362.008.7858-.163 1.5631-.5 2.2733-.28.6303-.706 1.1855-1.242 1.6206-.553.4085-1.184.7013-1.854.8607-.894.211-1.8116.3087-2.7306.2909h-6.459zm2.2411-10.09702h3.6609c.7181.03029 1.437-.03697 2.1366-.19994.515-.13622.969-.44151 1.288-.86675.302-.44786.454-.97997.433-1.51956.013-.53596-.126-1.06462-.4-1.52556-.261-.43157-.672-.75185-1.155-.89973-.8429-.19938-1.7098-.28113-2.5755-.24293h-3.3841l-.0039 5.25447zm0 8.03762h4.216c.5094.0137 1.0191-.014 1.5235-.0829.458-.0732.898-.2344 1.294-.4749.365-.2421.66-.5758.855-.9677.231-.454.346-.9576.335-1.4666.014-.6-.155-1.19-.485-1.6915-.322-.4783-.796-.834-1.346-1.00971-.8053-.22375-1.6409-.32188-2.4766-.29091h-3.9159v5.98422zM107.219 9.22831c-.145-2.46664.665-4.89444 2.264-6.77902.74-.80456 1.646-1.43989 2.654-1.862593 1.009-.422702 2.097-.622824 3.19-.586698 1.489-.020104 2.954.378614 4.227 1.150661 1.252.76373 2.25 1.88012 2.87 3.20907.678 1.46125 1.016 3.05711.988 4.66764.028 1.63713-.328 3.25803-1.04 4.73263-.635 1.33-1.663 2.4333-2.945 3.1611-1.253.711-2.67 1.0812-4.111 1.0737-1.509.0235-2.993-.3885-4.273-1.1867-1.245-.7796-2.237-1.9047-2.853-3.2381-.645-1.3563-.976-2.84-.971-4.34169zm2.31.03599c-.102 1.8001.487 3.5712 1.646 4.9526.529.5719 1.171 1.0279 1.886 1.3393.714.3113 1.485.4712 2.264.4695.78-.0017 1.55-.1649 2.263-.4794.713-.3144 1.353-.7732 1.88-1.3474 1.172-1.4636 1.755-3.3124 1.634-5.18353.027-1.27089-.211-2.53351-.7-3.70692-.414-.99699-1.118-1.84691-2.02-2.43999-.903-.59307-1.962-.90206-3.042-.88704-.761-.01087-1.517.13222-2.221.42066-.705.28845-1.344.7163-1.879 1.25785-1.141 1.11901-1.711 2.98713-1.711 5.60437zM125.611 9.22831c-.145-2.46662.666-4.89439 2.265-6.77902.74-.80469 1.646-1.4401 2.654-1.862803C131.539.16378 132.627-.036271 133.72 0c1.489-.019996 2.954.378715 4.228 1.15067 1.251.76382 2.25 1.88018 2.87 3.20906.677 1.46137 1.014 3.0572.986 4.66764.028 1.63713-.328 3.25793-1.04 4.73263-.635 1.33-1.663 2.4334-2.945 3.1611-1.252.7108-2.669 1.081-4.11 1.0737-1.509.0236-2.993-.3884-4.274-1.1867-1.245-.7794-2.236-1.9046-2.852-3.238-.645-1.3564-.977-2.8401-.972-4.34179zm2.311.03599c-.102 1.8001.486 3.5713 1.646 4.9526.529.572 1.171 1.0282 1.885 1.3396.714.3114 1.486.4713 2.265.4696.779-.0017 1.55-.1649 2.263-.4794.713-.3145 1.353-.7735 1.879-1.3478 1.173-1.4637 1.756-3.3124 1.635-5.18352.027-1.27091-.211-2.53354-.701-3.70692-.414-.99748-1.118-1.84773-2.021-2.44084-.903-.59312-1.963-.90182-3.043-.8862-.761-.01006-1.515.13342-2.219.42184-.703.28843-1.341.71585-1.875 1.25668-1.142 1.119-1.714 2.98713-1.714 5.60436zM144.599 17.706V.300018h2.241V8.93151l8.409-8.631492h3.038l-7.1 7.052952 7.415 10.35303h-2.957l-6.029-8.80949-2.772 2.77819v6.0313h-2.245zM179.995 15.6815v2.0534h-11.192c-.017-.5056.065-1.0096.242-1.4836.321-.8443.784-1.6274 1.369-2.3153.828-.956 1.738-1.8377 2.72-2.6352 1.378-1.0847 2.63-2.32117 3.731-3.68595.584-.73428.923-1.63318.97-2.57025.008-.39868-.066-.79471-.219-1.16333-.152-.36863-.378-.70192-.665-.97905a3.142989 3.142989 0 00-1.061-.67109c-.395-.14997-.817-.21856-1.239-.20165-.442-.02009-.884.05181-1.297.21115-.413.15935-.789.40267-1.103.71458-.632.70021-.96 1.62247-.912 2.56425l-2.137-.22593c.045-1.41533.637-2.75809 1.652-3.74591C171.927.647021 173.301.186529 174.7.258994c.703-.037435 1.407.066132 2.069.304605.663.238473 1.271.607031 1.789 1.083991.463.44398.828.97936 1.073 1.57209.244.59274.363 1.22987.348 1.87091-.002.70518-.143 1.40301-.416 2.0534-.344.77727-.81 1.49473-1.38 2.12538-1.001 1.08963-2.071 2.11283-3.205 3.06313-1.247 1.0763-2.047 1.8065-2.4 2.1903-.332.3544-.626.7424-.878 1.1577h8.3l-.005.001z" fill="#333"/></svg>